<?xml version="1.0" encoding="UTF-8" standalone="no"?>
<!DOCTYPE svg PUBLIC "-//W3C//DTD SVG 1.1//EN" "http://www.w3.org/Graphics/SVG/1.1/DTD/svg11.dtd">
<svg width="100%" height="100%" viewBox="0 0 200 200" version="1.1" xmlns="http://www.w3.org/2000/svg" xmlns:xlink="http://www.w3.org/1999/xlink" xml:space="preserve" xmlns:serif="http://www.serif.com/" style="fill-rule:evenodd;clip-rule:evenodd;">
    <g id="g1557" transform="matrix(0.124784,0,0,0.124784,-1607.81,-825.568)">
        <path id="path1453" d="M12944.5,7581.35C12952.4,7606.52 12962.2,7631.17 12973.3,7655.27C12957.7,7560.91 12963.1,7461.64 12993.2,7364.05C13006.6,7320.28 13024.5,7279.08 13045.9,7240.62C13057.3,7095.23 13118.3,6954.22 13225.4,6844.67C13152,6888.07 13086.2,6946.93 13033.4,7020.66C12912.4,7189.47 12886.2,7397.52 12944.5,7581.35Z" style="fill:rgb(195,77,241);fill-rule:nonzero;"/>
        <path id="path1451" d="M13007.3,7764.89C13072.3,7946.47 13219,8096.22 13417.5,8157.33C13504.4,8184.09 13592.7,8191.05 13677.5,8181.07C13645.4,8176.37 13613.3,8169.19 13581.3,8159.35C13466.6,8124.02 13369,8059.27 13294.2,7975.98C13253.3,7958.22 13213.6,7935.99 13175.9,7908.95C13095,7850.99 13031.7,7777.64 12987.1,7695.75C12992.6,7719.2 12999.2,7742.32 13007.3,7764.89Z" style="fill:rgb(255,127,255);fill-rule:nonzero;"/>
        <path id="path1449" d="M12982.3,7674.15C13026.9,7762.89 13092.9,7842.49 13179.2,7904.35C13213.2,7928.73 13248.8,7949.14 13285.5,7965.9C13201.6,7868.38 13148.1,7746.89 13134,7617.75C13066.9,7505.36 13037.8,7378.54 13045,7254.14C13026.4,7289.17 13010.7,7326.38 12998.6,7365.71C12966.7,7469.3 12962.7,7574.8 12982.3,7674.15Z" style="fill:rgb(201,38,242);fill-rule:nonzero;"/>
        <path id="path1447" d="M13172.8,7761.49C13200.4,7838.59 13242.7,7909.92 13297.5,7971.2C13416.7,8022.71 13546.5,8035 13669.4,8011.02C13561.5,7984.64 13461.6,7930.45 13380.6,7853.66C13305.2,7813.24 13236.6,7757.06 13180.4,7685.49C13166.2,7667.43 13153.2,7648.82 13141.2,7629.79C13147.1,7674.93 13157.6,7719.1 13172.8,7761.49Z" style="fill:rgb(159,62,233);fill-rule:nonzero;"/>
        <path id="path1445" d="M13080.5,7487.02C13093.7,7527.39 13111.1,7566.8 13132.8,7604.66C13125.7,7524.7 13133.5,7442.09 13158.6,7360.64C13167.8,7330.75 13179.1,7302.09 13192.1,7274.63C13212.1,7166.78 13259.4,7065.61 13329.4,6981.41C13214.2,7036.84 13116,7126.76 13051.4,7242.45C13045.1,7324.29 13054.6,7407.46 13080.5,7487.02Z" style="fill:rgb(138,22,167);fill-rule:nonzero;"/>
        <path id="path1443" d="M13139.5,7615.82C13153.1,7638.5 13168.1,7660.65 13184.8,7681.99C13235.9,7747 13297.3,7799.13 13364.7,7838.26C13299.5,7772.05 13247.8,7690.54 13215.8,7596.74C13181.6,7496.72 13173.9,7394.12 13188.5,7296.33C13179.3,7317.64 13171,7339.6 13164,7362.31C13138,7447 13130.6,7532.97 13139.5,7615.82Z" style="fill:rgb(113,43,167);fill-rule:nonzero;"/>
        <path id="path1441" d="M13306.9,7981.24C13379.8,8059.38 13473.5,8120.21 13583,8153.93C13621.9,8165.9 13661.1,8173.79 13700.1,8178.12C13843.7,8155.95 13976.1,8084.61 14073.7,7976.76C14058.4,7983.32 14042.9,7989.52 14027,7994.98C13911.8,8034.29 13793.2,8038.83 13682.6,8014.25C13558.9,8040.82 13427.8,8030.67 13306.9,7981.24Z" style="fill:rgb(154,148,231);fill-rule:nonzero;"/>
        <path id="path1439" d="M13052.6,7228.94C13120.1,7113.64 13220.9,7024.65 13338.5,6970.93C13410,6888.58 13503.4,6823.34 13614,6785.56C13633.5,6778.91 13653.1,6773.35 13672.7,6768.67C13526.8,6739.48 13374.6,6762.62 13244.2,6833.78C13131.9,6941.32 13067,7082.54 13052.6,7228.94Z" style="fill:rgb(127,45,159);fill-rule:nonzero;"/>
        <path id="path1435" d="M13400,7863.77C13480.4,7935.08 13577.8,7984.99 13682.6,8008.45C13788,7985.57 13887.8,7935.75 13970.9,7861.03C13789.7,7952.85 13577.4,7951.15 13400,7863.77Z" style="fill:rgb(88,88,243);fill-rule:nonzero;"/>
        <path id="path1433" d="M13201.5,7255.71C13293.1,7077.84 13461.5,6956.39 13651.8,6920.6C13543.6,6912.29 13437.3,6932.19 13341.9,6975.57C13272.5,7055.75 13224.1,7152.22 13201.5,7255.71Z" style="fill:rgb(71,64,204);fill-rule:nonzero;"/>
        <path id="path1431" d="M13721.4,8180.1C14010,8202.27 14285.8,8023.3 14374.6,7734.98C14379.9,7717.9 14384.2,7700.77 14387.9,7683.62C14324,7807.4 14219.8,7910.58 14085.8,7971.56C13991.2,8080.13 13862.3,8153.6 13721.4,8180.1Z" style="fill:rgb(94,255,216);fill-rule:nonzero;"/>
        <path id="path1429" d="M13260,6819.28C13391.1,6753.21 13542.2,6733.78 13686.3,6765.64C13831.1,6734.37 13977.6,6755.19 14103.6,6817.52C13878.9,6617.18 13536.4,6600.19 13291.5,6792.71C13280.6,6801.26 13270.2,6810.19 13260,6819.28Z" style="fill:rgb(148,148,148);fill-rule:nonzero;"/>
        <path id="path1427" d="M13695.7,8011.11C13801.9,8032.57 13915.1,8027.18 14025.1,7989.61C14044.8,7982.9 14063.9,7975.24 14082.4,7966.84C14138.5,7902.26 14182.4,7825.35 14209.1,7738.39C14221.9,7696.82 14230.2,7654.94 14234.3,7613.27C14194.9,7680.63 14142.7,7741.94 14077.6,7793.06C14049.7,7815 14020.5,7834.12 13990.4,7850.71C13906.6,7931.24 13804.3,7985.36 13695.7,8011.11Z" style="fill:rgb(76,133,242);fill-rule:nonzero;"/>
        <path id="path1425" d="M13350.7,6965.54C13450.2,6922.52 13560.9,6904.54 13673,6916.85C13765.3,6902.71 13862.1,6908.63 13957.3,6937.94C13975.7,6943.59 13993.5,6950.13 14011,6957.24C13982.9,6927.31 13951.6,6899.63 13917,6874.83C13845.6,6823.62 13767.1,6789.43 13686.4,6771.41C13662.8,6776.55 13639.2,6782.93 13615.8,6790.93C13510.3,6826.97 13420.5,6888.21 13350.7,6965.54Z" style="fill:rgb(61,77,203);fill-rule:nonzero;"/>
        <path id="path1423" d="M14006.4,7834.89C14029.6,7821.04 14052.3,7805.75 14074.1,7788.6C14141.8,7735.4 14195.7,7671.14 14235.3,7600.44C14243.8,7490.69 14223.3,7382.8 14178.7,7286.3C14205.1,7447.44 14170.1,7618.64 14067.5,7761.83C14048.7,7788.06 14028.2,7812.39 14006.4,7834.89Z" style="fill:rgb(52,107,201);fill-rule:nonzero;"/>
        <path id="path1421" d="M13695.6,6919.63C13727.7,6924.32 13759.9,6931.51 13791.9,6941.35C13957.9,6992.46 14088,7105.17 14164.9,7246.61C14141.3,7144.42 14092.3,7047.83 14019.8,6966.98C13999,6958.09 13977.7,6950.15 13955.7,6943.36C13868.7,6916.61 13780.5,6909.64 13695.6,6919.63Z" style="fill:rgb(47,91,200);fill-rule:nonzero;"/>
        <path id="path1419" d="M14095.1,7960.81C14228.9,7896.6 14331.7,7789.63 14392.2,7662.37C14419.9,7511.74 14391.3,7361.09 14319.2,7234.78C14330.2,7361.45 14303.4,7489.84 14240.8,7602.15C14237.2,7648.04 14228.7,7694.23 14214.6,7740.05C14188.9,7823.43 14147.7,7897.71 14095.1,7960.81Z" style="fill:rgb(35,185,234);fill-rule:nonzero;"/>
        <path id="path1417" d="M13699.3,6768.76C13776.6,6787.55 13851.7,6821.03 13920.3,6870.22C13958.7,6897.68 13992.9,6928.68 14023.2,6962.32C14145.4,7015.07 14244.1,7102.9 14311,7210.02C14297,7100.23 14254.1,6992.69 14180.7,6899.33C14161.7,6875.16 14141.3,6852.86 14119.7,6832.22C13994,6764.89 13846.1,6739.94 13699.3,6768.76Z" style="fill:rgb(56,127,201);fill-rule:nonzero;"/>
        <path id="path1415" d="M14241.8,7588.27C14301.5,7475.96 14325.8,7348.35 14312.4,7222.98C14248.1,7115.66 14152,7027.11 14032.3,6972.65C14105.6,7057.62 14153.7,7158.92 14174.7,7265.46C14224.1,7363.79 14248.3,7474.83 14241.8,7588.27Z" style="fill:rgb(20,141,192);fill-rule:nonzero;"/>
        <path id="circle1768-0-3-3-4-1" d="M14401.5,7642.38C14462.1,7502.78 14472.9,7341.03 14419.8,7185.63C14368.4,7035.12 14265.9,6916.67 14138.4,6842.69C14154.7,6859.38 14170.4,6877.03 14185.2,6895.83C14261.8,6993.36 14305.5,7106.26 14317.9,7221.13C14391.8,7344.93 14423.8,7493.15 14401.5,7642.38Z" style="fill:rgb(95,172,255);fill-rule:nonzero;"/>
    </g>
    <g id="g1125" transform="matrix(0.124784,0,0,0.124784,-1374.44,-829.173)">
        <g id="circle1752-0-3-9-9" transform="matrix(0.294222,-0.955737,-0.955737,-0.294222,0,0)">
            <circle cx="-3741.09" cy="-13601.9" r="636.15" style="fill:none;stroke:black;stroke-width:30px;"/>
        </g>
        <g id="circle1756-9-6-2-4" transform="matrix(0.294222,-0.955737,-0.955737,-0.294222,0,0)">
            <circle cx="-3793.03" cy="-13444.7" r="636.15" style="fill:none;stroke:black;stroke-width:30px;"/>
        </g>
        <g id="circle1760-3-7-0-7" transform="matrix(-0.8128,-0.582543,-0.582543,0.8128,0,0)">
            <circle cx="-13813.3" cy="-773.182" r="636.15" style="fill:none;stroke:black;stroke-width:30px;"/>
        </g>
        <g id="circle1764-6-5-2-8" transform="matrix(-0.786256,0.617901,0.617901,0.786256,0,0)">
            <circle cx="-4764.99" cy="13054" r="636.15" style="fill:none;stroke:black;stroke-width:30px;"/>
        </g>
        <g id="circle1768-0-3-3-4" transform="matrix(0.323122,0.946357,0.946357,-0.323122,0,0)">
            <circle cx="10882.5" cy="8911.95" r="636.15" style="fill:none;stroke:black;stroke-width:30px;"/>
        </g>
    </g>
</svg>
